<mxfile host="Electron" agent="Mozilla/5.0 (Windows NT 10.0; Win64; x64) AppleWebKit/537.36 (KHTML, like Gecko) draw.io/27.0.2 Chrome/134.0.6998.205 Electron/35.3.0 Safari/537.36" version="27.0.2">
  <diagram name="Page-1" id="revTOfrSgZGtpF-NmR1D">
    <mxGraphModel dx="2143" dy="943" grid="1" gridSize="10" guides="1" tooltips="1" connect="1" arrows="1" fold="1" page="1" pageScale="1" pageWidth="850" pageHeight="1100" math="0" shadow="0">
      <root>
        <mxCell id="0" />
        <mxCell id="1" parent="0" />
        <mxCell id="c4QqeqhwxBCpKI62nwar-6" value="" style="group" vertex="1" connectable="0" parent="1">
          <mxGeometry x="387.5" y="270" width="115" height="110" as="geometry" />
        </mxCell>
        <mxCell id="c4QqeqhwxBCpKI62nwar-1" value="" style="whiteSpace=wrap;html=1;aspect=fixed;" vertex="1" parent="c4QqeqhwxBCpKI62nwar-6">
          <mxGeometry y="30" width="80" height="80" as="geometry" />
        </mxCell>
        <mxCell id="c4QqeqhwxBCpKI62nwar-2" value="" style="whiteSpace=wrap;html=1;aspect=fixed;" vertex="1" parent="c4QqeqhwxBCpKI62nwar-6">
          <mxGeometry x="15" y="20" width="80" height="80" as="geometry" />
        </mxCell>
        <mxCell id="c4QqeqhwxBCpKI62nwar-3" value="" style="whiteSpace=wrap;html=1;aspect=fixed;" vertex="1" parent="c4QqeqhwxBCpKI62nwar-6">
          <mxGeometry x="25" y="10" width="80" height="80" as="geometry" />
        </mxCell>
        <mxCell id="c4QqeqhwxBCpKI62nwar-5" value="Gov" style="whiteSpace=wrap;html=1;aspect=fixed;" vertex="1" parent="c4QqeqhwxBCpKI62nwar-6">
          <mxGeometry x="35" width="80" height="80" as="geometry" />
        </mxCell>
        <mxCell id="c4QqeqhwxBCpKI62nwar-12" value="" style="group;rotation=0;" vertex="1" connectable="0" parent="1">
          <mxGeometry x="1210" y="560" width="340" height="340" as="geometry" />
        </mxCell>
        <mxCell id="c4QqeqhwxBCpKI62nwar-9" value="Data Center" style="rounded=1;arcSize=10;dashed=0;fillColor=none;gradientColor=none;strokeWidth=2;fontStyle=1;fontSize=25;rotation=0;" vertex="1" parent="c4QqeqhwxBCpKI62nwar-12">
          <mxGeometry x="13" y="21" width="200" height="200" as="geometry" />
        </mxCell>
        <mxCell id="c4QqeqhwxBCpKI62nwar-10" value="" style="dashed=0;html=1;shape=mxgraph.aws3.corporate_data_center;fillColor=#7D7C7C;gradientColor=none;dashed=0;rotation=0;" vertex="1" parent="c4QqeqhwxBCpKI62nwar-12">
          <mxGeometry x="33" width="30" height="42" as="geometry" />
        </mxCell>
        <mxCell id="c4QqeqhwxBCpKI62nwar-25" style="edgeStyle=orthogonalEdgeStyle;rounded=0;orthogonalLoop=1;jettySize=auto;html=1;exitX=1;exitY=0;exitDx=0;exitDy=0;entryX=0.989;entryY=0.071;entryDx=0;entryDy=0;entryPerimeter=0;" edge="1" parent="c4QqeqhwxBCpKI62nwar-12">
          <mxGeometry relative="1" as="geometry">
            <mxPoint x="-6" y="-140" as="sourcePoint" />
            <mxPoint x="-11" y="-126" as="targetPoint" />
          </mxGeometry>
        </mxCell>
        <mxCell id="c4QqeqhwxBCpKI62nwar-13" value="" style="outlineConnect=0;dashed=0;verticalLabelPosition=bottom;verticalAlign=top;align=center;html=1;shape=mxgraph.aws3.elastic_load_balancing;fillColor=#F58534;gradientColor=none;" vertex="1" parent="1">
          <mxGeometry x="1295.95" y="278.5" width="76.5" height="93" as="geometry" />
        </mxCell>
        <mxCell id="c4QqeqhwxBCpKI62nwar-26" value="HSS" style="whiteSpace=wrap;html=1;aspect=fixed;" vertex="1" parent="1">
          <mxGeometry x="400" y="110" width="90" height="90" as="geometry" />
        </mxCell>
        <mxCell id="c4QqeqhwxBCpKI62nwar-27" value="" style="sketch=0;outlineConnect=0;fontColor=#232F3E;gradientColor=none;fillColor=#232F3D;strokeColor=none;dashed=0;verticalLabelPosition=bottom;verticalAlign=top;align=center;html=1;fontSize=12;fontStyle=0;aspect=fixed;pointerEvents=1;shape=mxgraph.aws4.mobile_client;" vertex="1" parent="1">
          <mxGeometry x="1318.95" y="90" width="30.49" height="58" as="geometry" />
        </mxCell>
        <mxCell id="c4QqeqhwxBCpKI62nwar-28" value="" style="group" vertex="1" connectable="0" parent="1">
          <mxGeometry x="387.5" y="440" width="115" height="110" as="geometry" />
        </mxCell>
        <mxCell id="c4QqeqhwxBCpKI62nwar-29" value="" style="whiteSpace=wrap;html=1;aspect=fixed;" vertex="1" parent="c4QqeqhwxBCpKI62nwar-28">
          <mxGeometry y="30" width="80" height="80" as="geometry" />
        </mxCell>
        <mxCell id="c4QqeqhwxBCpKI62nwar-30" value="" style="whiteSpace=wrap;html=1;aspect=fixed;" vertex="1" parent="c4QqeqhwxBCpKI62nwar-28">
          <mxGeometry x="15" y="20" width="80" height="80" as="geometry" />
        </mxCell>
        <mxCell id="c4QqeqhwxBCpKI62nwar-31" value="" style="whiteSpace=wrap;html=1;aspect=fixed;" vertex="1" parent="c4QqeqhwxBCpKI62nwar-28">
          <mxGeometry x="25" y="10" width="80" height="80" as="geometry" />
        </mxCell>
        <mxCell id="c4QqeqhwxBCpKI62nwar-32" value="ادارة" style="whiteSpace=wrap;html=1;aspect=fixed;" vertex="1" parent="c4QqeqhwxBCpKI62nwar-28">
          <mxGeometry x="35" width="80" height="80" as="geometry" />
        </mxCell>
        <mxCell id="c4QqeqhwxBCpKI62nwar-33" value="" style="group" vertex="1" connectable="0" parent="1">
          <mxGeometry x="375" y="600" width="115" height="110" as="geometry" />
        </mxCell>
        <mxCell id="c4QqeqhwxBCpKI62nwar-34" value="" style="whiteSpace=wrap;html=1;aspect=fixed;" vertex="1" parent="c4QqeqhwxBCpKI62nwar-33">
          <mxGeometry y="30" width="80" height="80" as="geometry" />
        </mxCell>
        <mxCell id="c4QqeqhwxBCpKI62nwar-35" value="" style="whiteSpace=wrap;html=1;aspect=fixed;" vertex="1" parent="c4QqeqhwxBCpKI62nwar-33">
          <mxGeometry x="15" y="20" width="80" height="80" as="geometry" />
        </mxCell>
        <mxCell id="c4QqeqhwxBCpKI62nwar-36" value="" style="whiteSpace=wrap;html=1;aspect=fixed;" vertex="1" parent="c4QqeqhwxBCpKI62nwar-33">
          <mxGeometry x="25" y="10" width="80" height="80" as="geometry" />
        </mxCell>
        <mxCell id="c4QqeqhwxBCpKI62nwar-37" value="hos" style="whiteSpace=wrap;html=1;aspect=fixed;" vertex="1" parent="c4QqeqhwxBCpKI62nwar-33">
          <mxGeometry x="35" width="80" height="80" as="geometry" />
        </mxCell>
        <mxCell id="c4QqeqhwxBCpKI62nwar-38" value="" style="group" vertex="1" connectable="0" parent="1">
          <mxGeometry x="370" y="810" width="115" height="110" as="geometry" />
        </mxCell>
        <mxCell id="c4QqeqhwxBCpKI62nwar-39" value="" style="whiteSpace=wrap;html=1;aspect=fixed;" vertex="1" parent="c4QqeqhwxBCpKI62nwar-38">
          <mxGeometry y="30" width="80" height="80" as="geometry" />
        </mxCell>
        <mxCell id="c4QqeqhwxBCpKI62nwar-40" value="" style="whiteSpace=wrap;html=1;aspect=fixed;" vertex="1" parent="c4QqeqhwxBCpKI62nwar-38">
          <mxGeometry x="15" y="20" width="80" height="80" as="geometry" />
        </mxCell>
        <mxCell id="c4QqeqhwxBCpKI62nwar-41" value="" style="whiteSpace=wrap;html=1;aspect=fixed;" vertex="1" parent="c4QqeqhwxBCpKI62nwar-38">
          <mxGeometry x="25" y="10" width="80" height="80" as="geometry" />
        </mxCell>
        <mxCell id="c4QqeqhwxBCpKI62nwar-42" value="Radiology" style="whiteSpace=wrap;html=1;aspect=fixed;" vertex="1" parent="c4QqeqhwxBCpKI62nwar-38">
          <mxGeometry x="35" width="80" height="80" as="geometry" />
        </mxCell>
        <mxCell id="c4QqeqhwxBCpKI62nwar-43" value="" style="group" vertex="1" connectable="0" parent="1">
          <mxGeometry x="550" y="810" width="115" height="110" as="geometry" />
        </mxCell>
        <mxCell id="c4QqeqhwxBCpKI62nwar-44" value="" style="whiteSpace=wrap;html=1;aspect=fixed;" vertex="1" parent="c4QqeqhwxBCpKI62nwar-43">
          <mxGeometry y="30" width="80" height="80" as="geometry" />
        </mxCell>
        <mxCell id="c4QqeqhwxBCpKI62nwar-45" value="" style="whiteSpace=wrap;html=1;aspect=fixed;" vertex="1" parent="c4QqeqhwxBCpKI62nwar-43">
          <mxGeometry x="15" y="20" width="80" height="80" as="geometry" />
        </mxCell>
        <mxCell id="c4QqeqhwxBCpKI62nwar-46" value="" style="whiteSpace=wrap;html=1;aspect=fixed;" vertex="1" parent="c4QqeqhwxBCpKI62nwar-43">
          <mxGeometry x="25" y="10" width="80" height="80" as="geometry" />
        </mxCell>
        <mxCell id="c4QqeqhwxBCpKI62nwar-47" value="Medicallab" style="whiteSpace=wrap;html=1;aspect=fixed;" vertex="1" parent="c4QqeqhwxBCpKI62nwar-43">
          <mxGeometry x="35" width="80" height="80" as="geometry" />
        </mxCell>
        <mxCell id="c4QqeqhwxBCpKI62nwar-48" value="" style="group" vertex="1" connectable="0" parent="1">
          <mxGeometry x="190" y="810" width="115" height="110" as="geometry" />
        </mxCell>
        <mxCell id="c4QqeqhwxBCpKI62nwar-49" value="" style="whiteSpace=wrap;html=1;aspect=fixed;" vertex="1" parent="c4QqeqhwxBCpKI62nwar-48">
          <mxGeometry y="30" width="80" height="80" as="geometry" />
        </mxCell>
        <mxCell id="c4QqeqhwxBCpKI62nwar-50" value="" style="whiteSpace=wrap;html=1;aspect=fixed;" vertex="1" parent="c4QqeqhwxBCpKI62nwar-48">
          <mxGeometry x="15" y="20" width="80" height="80" as="geometry" />
        </mxCell>
        <mxCell id="c4QqeqhwxBCpKI62nwar-51" value="" style="whiteSpace=wrap;html=1;aspect=fixed;" vertex="1" parent="c4QqeqhwxBCpKI62nwar-48">
          <mxGeometry x="25" y="10" width="80" height="80" as="geometry" />
        </mxCell>
        <mxCell id="c4QqeqhwxBCpKI62nwar-52" value="Pharmacy" style="whiteSpace=wrap;html=1;aspect=fixed;" vertex="1" parent="c4QqeqhwxBCpKI62nwar-48">
          <mxGeometry x="35" width="80" height="80" as="geometry" />
        </mxCell>
        <mxCell id="c4QqeqhwxBCpKI62nwar-53" value="" style="group" vertex="1" connectable="0" parent="1">
          <mxGeometry x="720" y="810" width="115" height="110" as="geometry" />
        </mxCell>
        <mxCell id="c4QqeqhwxBCpKI62nwar-54" value="" style="whiteSpace=wrap;html=1;aspect=fixed;" vertex="1" parent="c4QqeqhwxBCpKI62nwar-53">
          <mxGeometry y="30" width="80" height="80" as="geometry" />
        </mxCell>
        <mxCell id="c4QqeqhwxBCpKI62nwar-55" value="" style="whiteSpace=wrap;html=1;aspect=fixed;" vertex="1" parent="c4QqeqhwxBCpKI62nwar-53">
          <mxGeometry x="15" y="20" width="80" height="80" as="geometry" />
        </mxCell>
        <mxCell id="c4QqeqhwxBCpKI62nwar-56" value="" style="whiteSpace=wrap;html=1;aspect=fixed;" vertex="1" parent="c4QqeqhwxBCpKI62nwar-53">
          <mxGeometry x="25" y="10" width="80" height="80" as="geometry" />
        </mxCell>
        <mxCell id="c4QqeqhwxBCpKI62nwar-57" value="Clinic" style="whiteSpace=wrap;html=1;aspect=fixed;" vertex="1" parent="c4QqeqhwxBCpKI62nwar-53">
          <mxGeometry x="35" width="80" height="80" as="geometry" />
        </mxCell>
        <mxCell id="c4QqeqhwxBCpKI62nwar-68" value="&lt;b&gt;&lt;font style=&quot;font-size: 23px;&quot;&gt;........&lt;/font&gt;&lt;/b&gt;" style="text;html=1;align=center;verticalAlign=middle;whiteSpace=wrap;rounded=0;" vertex="1" parent="1">
          <mxGeometry x="80" y="865" width="60" height="30" as="geometry" />
        </mxCell>
        <mxCell id="c4QqeqhwxBCpKI62nwar-69" value="" style="group;rotation=89;" vertex="1" connectable="0" parent="1">
          <mxGeometry x="1319.2" y="320" width="50" height="300" as="geometry" />
        </mxCell>
        <mxCell id="c4QqeqhwxBCpKI62nwar-15" value="" style="image;html=1;image=img/lib/clip_art/computers/Server_128x128.png;flipH=0;rotation=89;" vertex="1" parent="c4QqeqhwxBCpKI62nwar-69">
          <mxGeometry x="130" y="128" width="50" height="40" as="geometry" />
        </mxCell>
        <mxCell id="c4QqeqhwxBCpKI62nwar-16" value="" style="image;html=1;image=img/lib/clip_art/computers/Server_128x128.png;flipH=0;rotation=89;" vertex="1" parent="c4QqeqhwxBCpKI62nwar-69">
          <mxGeometry x="87" y="128" width="50" height="40" as="geometry" />
        </mxCell>
        <mxCell id="c4QqeqhwxBCpKI62nwar-18" value="" style="image;html=1;image=img/lib/clip_art/computers/Server_128x128.png;flipH=0;rotation=89;" vertex="1" parent="c4QqeqhwxBCpKI62nwar-69">
          <mxGeometry x="-130" y="132" width="50" height="40" as="geometry" />
        </mxCell>
        <mxCell id="c4QqeqhwxBCpKI62nwar-19" value="" style="image;html=1;image=img/lib/clip_art/computers/Server_128x128.png;flipH=0;rotation=89;" vertex="1" parent="c4QqeqhwxBCpKI62nwar-69">
          <mxGeometry x="43" y="129" width="50" height="40" as="geometry" />
        </mxCell>
        <mxCell id="c4QqeqhwxBCpKI62nwar-20" value="" style="image;html=1;image=img/lib/clip_art/computers/Server_128x128.png;flipH=0;rotation=89;" vertex="1" parent="c4QqeqhwxBCpKI62nwar-69">
          <mxGeometry y="130" width="50" height="40" as="geometry" />
        </mxCell>
        <mxCell id="c4QqeqhwxBCpKI62nwar-21" value="" style="image;html=1;image=img/lib/clip_art/computers/Server_128x128.png;flipH=0;rotation=89;" vertex="1" parent="c4QqeqhwxBCpKI62nwar-69">
          <mxGeometry x="-43" y="131" width="50" height="40" as="geometry" />
        </mxCell>
        <mxCell id="c4QqeqhwxBCpKI62nwar-22" value="" style="image;html=1;image=img/lib/clip_art/computers/Server_128x128.png;flipH=0;rotation=89;" vertex="1" parent="c4QqeqhwxBCpKI62nwar-69">
          <mxGeometry x="-87" y="132" width="50" height="40" as="geometry" />
        </mxCell>
      </root>
    </mxGraphModel>
  </diagram>
</mxfile>
